<?xml version="1.0" standalone="no"?><!DOCTYPE svg PUBLIC "-//W3C//DTD SVG 1.1//EN" "http://www.w3.org/Graphics/SVG/1.1/DTD/svg11.dtd"><svg t="1609652187113" class="icon" viewBox="0 0 1170 1024" version="1.1" xmlns="http://www.w3.org/2000/svg" p-id="5825" xmlns:xlink="http://www.w3.org/1999/xlink" width="342.7734375" height="300"><defs><style type="text/css"></style></defs><path d="M1072.786286 853.357714H609.499429V950.857143h243.858285c14.628571 0 24.356571 9.728 24.356572 24.356571s-9.728 24.429714-24.356572 24.429715H316.928c-14.628571 0-24.356571-9.801143-24.356571-24.429715S302.299429 950.857143 316.928 950.857143h243.858286v-97.499429H97.499429c-41.398857 0-73.142857-31.744-73.142858-73.142857V97.499429c0-41.398857 31.744-73.142857 73.142858-73.142858h975.286857c41.398857 0 73.142857 31.744 73.142857 73.142858v682.715428c0 41.398857-31.744 73.142857-73.142857 73.142857zM1097.142857 97.499429c0-14.628571-9.728-24.356571-24.356571-24.356572H97.499429c-14.628571 0-24.356571 9.728-24.356572 24.356572v585.142857h1024v-585.142857zM1097.142857 731.428571H73.142857v48.786286c0 14.628571 9.728 24.356571 24.356572 24.356572h975.286857c14.628571 0 24.356571-9.728 24.356571-24.356572V731.428571z" p-id="5826"></path></svg>