<?xml version="1.0" standalone="no"?><!DOCTYPE svg PUBLIC "-//W3C//DTD SVG 1.1//EN" "http://www.w3.org/Graphics/SVG/1.1/DTD/svg11.dtd"><svg t="1609419768054" class="icon" viewBox="0 0 1024 1024" version="1.1" xmlns="http://www.w3.org/2000/svg" p-id="7883" width="300" height="300" xmlns:xlink="http://www.w3.org/1999/xlink"><defs><style type="text/css"></style></defs><path d="M1006.08 412.672l-187.392-140.8V121.344c0-2.048-2.048-4.096-4.096-4.096h-92.16c-2.048 0-4.096 2.048-4.096 4.096v74.752l-182.784-137.216c-7.168-5.632-15.872-8.192-25.088-8.192-9.216 0-17.92 3.072-25.088 8.704l-468.48 353.28C8.192 419.328 2.048 429.056 0.512 440.32c-2.048 14.848 3.584 29.696 16.384 39.424 4.096 3.072 9.216 5.632 14.336 7.168 12.8 3.072 25.6 0.512 35.84-7.168L504.832 148.48c3.072-2.048 7.168-2.048 10.24 0L957.44 480.768c7.168 5.632 15.872 8.192 25.088 8.192 13.824 0 26.112-6.656 34.304-17.92 12.8-18.432 7.68-44.544-10.752-58.368z" p-id="7884"></path><path d="M906.752 499.2l-193.024-139.776L517.12 217.088c-3.584-2.56-8.192-2.56-11.264 0L308.736 359.424 115.712 499.2c-5.632 4.096-9.216 10.752-9.216 17.408v392.192c0 35.328 29.184 64.512 64.512 64.512h246.784v-257.536c0-30.208 24.576-54.784 54.784-54.784h77.312c30.208 0 54.784 24.576 54.784 54.784v257.536h246.784c35.328 0 64.512-29.184 64.512-64.512V517.12c-0.512-7.168-3.584-13.824-9.216-17.92z" p-id="7885"></path></svg>