<?xml version="1.0" standalone="no"?><!DOCTYPE svg PUBLIC "-//W3C//DTD SVG 1.1//EN" "http://www.w3.org/Graphics/SVG/1.1/DTD/svg11.dtd"><svg t="1609652685929" class="icon" viewBox="0 0 1024 1024" version="1.1" xmlns="http://www.w3.org/2000/svg" p-id="7988" xmlns:xlink="http://www.w3.org/1999/xlink" width="300" height="300"><defs><style type="text/css"></style></defs><path d="M685.762 1012.199H311.813c-86.051 0-155.813-69.76-155.813-155.813V170.813C156 84.762 225.762 15 311.813 15h373.949c86.052 0 155.813 69.762 155.813 155.813v685.574c-0.001 86.052-69.762 155.812-155.813 155.812zM311.813 77.324c-51.63 0-93.488 41.858-93.488 93.488v685.574c0 51.635 41.858 93.488 93.488 93.488h373.949c51.635 0 93.488-41.854 93.488-93.488V170.813c0-51.63-41.854-93.488-93.488-93.488H311.813z m0 0"  p-id="7989"></path><path d="M498.79 887.551c-34.422 0-62.329-27.902-62.329-62.322 0-34.423 27.907-62.33 62.329-62.33 34.421 0 62.324 27.907 62.324 62.33-0.001 34.419-27.903 62.322-62.324 62.322z m62.323-685.573H436.46c-17.208 0-31.16-13.956-31.16-31.165 0-17.208 13.952-31.165 31.16-31.165h124.653c17.209 0 31.16 13.956 31.16 31.165 0 17.208-13.951 31.165-31.16 31.165z m0 0"  p-id="7990"></path></svg>