<?xml version="1.0" standalone="no"?><!DOCTYPE svg PUBLIC "-//W3C//DTD SVG 1.1//EN" "http://www.w3.org/Graphics/SVG/1.1/DTD/svg11.dtd"><svg t="1609652753008" class="icon" viewBox="0 0 1024 1024" version="1.1" xmlns="http://www.w3.org/2000/svg" p-id="9257" xmlns:xlink="http://www.w3.org/1999/xlink" width="300" height="300"><defs><style type="text/css"></style></defs><path d="M304.247447 489.267444A59.102019 59.102019 0 0 0 363.093614 547.601905a57.669243 57.669243 0 0 0 58.33446-56.799343v-1.535118a58.641484 58.641484 0 1 0-116.668921-12.280939 33.107365 33.107365 0 0 0-0.511706 12.280939zM658.859563 429.909572a58.28329 58.28329 0 0 0-58.334461 58.334461v1.535117a58.641484 58.641484 0 1 0 116.668922 12.280939 49.328439 49.328439 0 0 0 0-12.280939A59.971919 59.971919 0 0 0 658.859563 429.909572z"  p-id="9258"></path><path d="M920.341224 401.254048V262.070072a63.963224 63.963224 0 0 0-63.963224-63.963225h-319.304416V140.795798a71.178276 71.178276 0 0 0 42.983287-63.963224 73.480952 73.480952 0 1 0-146.859563-6.652175 73.787976 73.787976 0 0 0 46.565227 71.638811v58.33446H164.551765a57.004026 57.004026 0 0 0-42.471581 16.374586 65.651853 65.651853 0 0 0-19.956526 45.541816v139.183976a88.780955 88.780955 0 0 0 0.511706 175.003382v174.491676a63.963224 63.963224 0 0 0 63.963225 63.963224h174.491676v32.749171H286.337745a63.963224 63.963224 0 0 0-63.963225 63.963224v48.612051a63.963224 63.963224 0 0 0 63.963225 63.963224h447.230864a63.963224 63.963224 0 0 0 63.963224-63.963224v-51.17058a63.963224 63.963224 0 0 0-63.963224-63.963224h-54.75252v-30.702348h205.70573a30.702348 30.702348 0 0 0 13.816056-3.58194 21.133449 21.133449 0 0 0 5.628764-3.581941 37.96857 37.96857 0 0 0 11.257527-22.515055V578.304253a88.832126 88.832126 0 0 0 0-177.050205z m-299.859596 476.398095a29.16723 29.16723 0 0 0 29.167231 29.16723h85.966573v52.193991H288.896273v-52.193991h81.872928a29.423083 29.423083 0 0 0 30.190642-27.632113v-66.010047h219.521785z m-455.929863-120.762568V262.070072h691.826235v496.354621z"  p-id="9259"></path></svg>