<?xml version="1.0" standalone="no"?><!DOCTYPE svg PUBLIC "-//W3C//DTD SVG 1.1//EN" "http://www.w3.org/Graphics/SVG/1.1/DTD/svg11.dtd"><svg t="1609652595066" class="icon" viewBox="0 0 1102 1024" version="1.1" xmlns="http://www.w3.org/2000/svg" p-id="6872" xmlns:xlink="http://www.w3.org/1999/xlink" width="322.8515625" height="300"><defs><style type="text/css"></style></defs><path d="M1051.531028 313.501538a19.298462 19.298462 0 0 0 19.022769-19.495384V227.524923a19.298462 19.298462 0 0 0-19.022769-19.495385h-388.017231a142.966154 142.966154 0 0 0-40.054154-53.405538L741.02272 34.185846a19.849846 19.849846 0 0 0 0-27.569231 18.707692 18.707692 0 0 0-26.899692 0l-124.337231 127.369847a137.609846 137.609846 0 0 0-109.016615 0L356.471335 6.616615a18.707692 18.707692 0 0 0-26.899692 0 19.849846 19.849846 0 0 0 0 27.569231l117.523692 120.438154a142.926769 142.926769 0 0 0-40.054153 53.405538H19.023951A19.298462 19.298462 0 0 0 0.001182 227.524923v776.073846a19.298462 19.298462 0 0 0 19.022769 19.495385H1051.570412a19.298462 19.298462 0 0 0 19.02277-19.495385V366.276923a19.298462 19.298462 0 0 0-19.02277-19.495385 19.298462 19.298462 0 0 0-19.022769 19.495385v617.826462H38.04672V247.020308h994.461538v46.985846a19.298462 19.298462 0 0 0 19.02277 19.495384zM450.364258 208.029538a101.454769 101.454769 0 0 1 84.913231-46.276923c34.737231 0 66.284308 17.801846 84.913231 46.276923h-169.826462z"  p-id="6873"></path><path d="M811.954412 406.764308c-8.073846-45.489231-43.323077-79.872-87.709538-85.543385a2094.08 2094.08 0 0 0-530.235077 0c-44.386462 5.671385-79.635692 40.054154-87.748923 85.543385a1178.939077 1178.939077 0 0 0-15.163077 292.312615c0.787692 10.752 9.885538 18.786462 20.401231 17.998769a19.337846 19.337846 0 0 0 17.526154-20.91323 1138.845538 1138.845538 0 0 1 14.690461-282.387693c5.12-28.672 27.175385-50.294154 54.980923-53.838769 172.780308-22.055385 348.041846-22.055385 520.861539 0 27.766154 3.544615 49.860923 25.166769 54.941538 53.799385a1138.766769 1138.766769 0 0 1 0 399.28123c-5.080615 28.672-27.175385 50.294154-54.941538 53.83877-172.819692 22.055385-348.041846 22.055385-520.861539 0-27.805538-3.544615-49.900308-25.206154-54.980923-53.83877-2.481231-13.902769-4.726154-27.963077-6.695385-41.865846a19.101538 19.101538 0 0 0-21.504-16.541538 19.416615 19.416615 0 0 0-16.147692 22.055384c2.048 14.375385 4.332308 28.947692 6.892308 43.323077 8.113231 45.489231 43.323077 79.872 87.709538 85.58277a2093.568 2093.568 0 0 0 530.274462 0c44.386462-5.710769 79.635692-40.093538 87.709538-85.543385a1178.466462 1178.466462 0 0 0 0-413.262769zM928.41472 502.862769c-38.478769 0-69.789538 32.098462-69.789538 71.522462 0 39.463385 31.310769 71.522462 69.789538 71.522461 38.518154 0 69.828923-32.059077 69.828923-71.522461 0-39.424-31.310769-71.522462-69.828923-71.522462z m0 104.054154a32.177231 32.177231 0 0 1-31.744-32.531692c0-17.92 14.257231-32.531692 31.744-32.531693 17.526154 0 31.783385 14.572308 31.783385 32.531693a32.177231 32.177231 0 0 1-31.783385 32.531692zM928.41472 334.887385c-38.478769 0-69.789538 32.059077-69.789538 71.522461 0 39.424 31.310769 71.522462 69.789538 71.522462 38.518154 0 69.828923-32.098462 69.828923-71.522462 0-39.463385-31.310769-71.522462-69.828923-71.522461z m0 104.054153a32.177231 32.177231 0 0 1-31.744-32.531692c0-17.959385 14.257231-32.531692 31.744-32.531692 17.526154 0 31.783385 14.572308 31.783385 32.531692a32.177231 32.177231 0 0 1-31.783385 32.531692zM979.220874 725.464615h-101.572923a19.298462 19.298462 0 0 0-19.022769 19.456 19.298462 19.298462 0 0 0 19.022769 19.495385h101.572923a19.298462 19.298462 0 0 0 19.022769-19.495385 19.298462 19.298462 0 0 0-19.022769-19.495384zM979.220874 878.631385h-101.572923a19.298462 19.298462 0 0 0-19.022769 19.495384 19.298462 19.298462 0 0 0 19.022769 19.495385h101.572923a19.298462 19.298462 0 0 0 19.022769-19.495385 19.298462 19.298462 0 0 0-19.022769-19.495384zM979.220874 802.028308h-101.572923a19.298462 19.298462 0 0 0-19.022769 19.495384 19.298462 19.298462 0 0 0 19.022769 19.495385h101.572923a19.298462 19.298462 0 0 0 19.022769-19.495385 19.298462 19.298462 0 0 0-19.022769-19.495384z"  p-id="6874"></path></svg>