<?xml version="1.0" standalone="no"?><!DOCTYPE svg PUBLIC "-//W3C//DTD SVG 1.1//EN" "http://www.w3.org/Graphics/SVG/1.1/DTD/svg11.dtd"><svg t="1609652492262" class="icon" viewBox="0 0 1024 1024" version="1.1" xmlns="http://www.w3.org/2000/svg" p-id="12515" xmlns:xlink="http://www.w3.org/1999/xlink" width="300" height="300"><defs><style type="text/css"></style></defs><path d="M672 832h192v64h-192z"  p-id="12516"></path><path d="M672 768h64v-64h-64c-89.6 0-160 70.4-160 160s70.4 160 160 160h64v-64h-64c-54.4 0-96-41.6-96-96s41.6-96 96-96zM1024 864c0-89.6-70.4-160-160-160h-64v64h64c54.4 0 96 41.6 96 96s-41.6 96-96 96h-64v64h64c89.6 0 160-70.4 160-160z"  p-id="12517"></path><path d="M448 960H64V256h896v384h64V0H0v1024h448v-64zM64 64h896v128H64V64z"  p-id="12518"></path><path d="M128 96h64v64H128zM256 96h64v64H256zM384 96h64v64h-64z"  p-id="12519"></path></svg>